# xmcd CD database file
# Copyright (C) 1993-1998 Ti Kan
#
# Track frame offsets:
#  183
#  14155
#  33430
#  48528
#  62680
#  77633
#  91310
#  141613
#  158670
#  175915
#
# Disc length: 2649 seconds
#
# Revision: 1
# Processed by: cddbd v1.4b41PL1 Copyright (c) Steve Scherf et al.
# Submitted via: CDWizzard Release:4.61
#
DISCID=850a570a
DTITLE=Pirates Of The Mississippi - Walk the Plank
DYEAR=1900
DGENRE=
TTITLE0=Too Much
TTITLE1=I Wouldn't Have it any Other Way
TTITLE2=Til I'm Holding You Again
TTITLE3=Georgia Peaches
TTITLE4=Fighting For You
TTITLE5=This Ain't the Denver I Remember
TTITLE6=Nashville Night/Redneck Blues
TTITLE7=The Storm
TTITLE8=Uncommon Man
TTITLE9=Honky Tonk Highway
EXTD=
EXTT0=
EXTT1=
EXTT2=
EXTT3=
EXTT4=
EXTT5=
EXTT6=
EXTT7=
EXTT8=
EXTT9=
PLAYORDER=
